<svg width="24" height="15" viewBox="0 0 24 15" fill="none" xmlns="http://www.w3.org/2000/svg">
<path d="M12.3145 0.822266C12.4121 0.822266 12.4935 0.822266 12.5586 0.822266C12.6302 0.822266 12.7051 0.832031 12.7832 0.851562C13.3822 0.96224 13.75 1.19987 13.8867 1.56445C13.9193 1.6556 13.9355 1.75 13.9355 1.84766C13.9355 2.13411 13.7891 2.43359 13.4961 2.74609C13.2617 2.96745 13.0924 3.07812 12.9883 3.07812C12.9622 3.07812 12.9395 3.07161 12.9199 3.05859C12.8809 3.03255 12.8613 2.98372 12.8613 2.91211C12.8613 2.79492 12.9069 2.62565 12.998 2.4043C13.0762 2.24154 13.1152 2.11133 13.1152 2.01367C13.1152 1.94206 13.0762 1.87695 12.998 1.81836C12.9264 1.75977 12.627 1.72721 12.0996 1.7207C12.0345 1.71419 11.9661 1.71094 11.8945 1.71094C11.4648 1.71094 10.9115 1.78255 10.2344 1.92578C9.55729 2.06901 8.86393 2.26758 8.1543 2.52148C7.91341 2.61914 7.68555 2.72656 7.4707 2.84375C7.26237 2.96094 7.10612 3.06185 7.00195 3.14648C6.95638 3.18555 6.93359 3.2181 6.93359 3.24414C6.93359 3.26367 6.95964 3.27344 7.01172 3.27344C7.03776 3.27344 7.05078 3.27995 7.05078 3.29297C7.05078 3.3125 7.02148 3.35156 6.96289 3.41016C6.9043 3.46224 6.80339 3.53385 6.66016 3.625C6.52344 3.71615 6.38021 3.79427 6.23047 3.85938C6.13932 3.89844 6.06771 3.95052 6.01562 4.01562C5.96354 4.07422 5.91797 4.16862 5.87891 4.29883C5.83984 4.42253 5.80078 4.60807 5.76172 4.85547C5.67057 5.39583 5.625 5.78971 5.625 6.03711C5.625 6.26497 5.66081 6.37891 5.73242 6.37891C5.77799 6.37891 5.9082 6.33984 6.12305 6.26172C6.3444 6.17708 6.59831 6.06966 6.88477 5.93945C7.4707 5.7181 8.0306 5.54232 8.56445 5.41211C8.60352 5.39909 8.64258 5.39258 8.68164 5.39258C8.82487 5.39258 8.90625 5.50326 8.92578 5.72461C8.89974 6.08268 8.81185 6.29102 8.66211 6.34961C8.51888 6.38867 8.38216 6.42773 8.25195 6.4668C8.01107 6.55143 7.63672 6.71419 7.12891 6.95508C6.6276 7.18945 6.2793 7.36523 6.08398 7.48242L5.57617 7.77539L5.67383 9.32812C5.72591 10.2266 5.75195 11.0762 5.75195 11.877C5.75195 11.9616 5.7487 12.248 5.74219 12.7363C5.73568 13.2181 5.70312 13.625 5.64453 13.957C5.61198 14.1198 5.56641 14.2337 5.50781 14.2988C5.44922 14.3704 5.35807 14.4095 5.23438 14.416C5.16927 14.429 5.10742 14.4355 5.04883 14.4355C4.88607 14.4355 4.7819 14.3835 4.73633 14.2793C4.71029 14.2207 4.69727 14.1393 4.69727 14.0352C4.69727 13.8724 4.72331 13.6576 4.77539 13.3906C4.82096 13.0586 4.84701 12.5996 4.85352 12.0137V11.6621C4.85352 11.1868 4.84049 10.6758 4.81445 10.1289C4.79492 9.57552 4.76237 9.08073 4.7168 8.64453C4.67122 8.20833 4.61589 7.99023 4.55078 7.99023C4.42708 7.99023 4.19922 8.09115 3.86719 8.29297C3.54167 8.49479 3.21615 8.72917 2.89062 8.99609C2.5651 9.25651 2.32096 9.49089 2.1582 9.69922C2.04102 9.86198 1.94661 9.94336 1.875 9.94336C1.85547 9.94336 1.83594 9.93359 1.81641 9.91406C1.78385 9.86849 1.73503 9.82617 1.66992 9.78711C1.60482 9.74805 1.53971 9.71875 1.47461 9.69922C1.38346 9.66016 1.33789 9.60482 1.33789 9.5332C1.33789 9.49414 1.35417 9.44531 1.38672 9.38672C1.66016 8.90495 2.38607 8.29622 3.56445 7.56055L4.73633 6.83789L4.77539 5.50977C4.78841 5.13867 4.79492 4.82617 4.79492 4.57227C4.80143 4.31836 4.80469 4.1849 4.80469 4.17188C4.79818 4.16536 4.79167 4.16211 4.78516 4.16211C4.73307 4.16211 4.58008 4.23372 4.32617 4.37695C4.07227 4.52018 3.75326 4.71549 3.36914 4.96289C2.99154 5.20378 2.63021 5.44792 2.28516 5.69531C2.27214 5.71484 2.26237 5.75065 2.25586 5.80273C2.24935 5.83529 2.23958 5.87109 2.22656 5.91016C2.22656 5.95573 2.20052 6.02734 2.14844 6.125C2.09635 6.21615 2.03776 6.31055 1.97266 6.4082C1.91406 6.50586 1.87174 6.60026 1.8457 6.69141C1.83268 6.73047 1.82617 6.76302 1.82617 6.78906C1.82617 6.82812 1.83594 6.85742 1.85547 6.87695C1.875 6.90951 1.88477 6.94206 1.88477 6.97461C1.88477 7.05924 1.81966 7.12435 1.68945 7.16992C1.56576 7.20898 1.41927 7.22852 1.25 7.22852C1.17839 7.22852 1.05794 7.22201 0.888672 7.20898C0.719401 7.18945 0.54362 7.11784 0.361328 6.99414C0.192057 6.86393 0.094401 6.74674 0.0683594 6.64258C0.061849 6.61654 0.0585938 6.59049 0.0585938 6.56445C0.0585938 6.4668 0.0976562 6.3431 0.175781 6.19336C0.240885 6.10221 0.507812 5.89714 0.976562 5.57812C1.44531 5.2526 1.97266 4.9043 2.55859 4.5332C3.15104 4.16211 3.66211 3.86589 4.0918 3.64453C4.22201 3.5599 4.36198 3.46549 4.51172 3.36133C4.66146 3.25716 4.77865 3.16602 4.86328 3.08789C4.94792 2.99023 5.03581 2.91536 5.12695 2.86328C5.2181 2.80469 5.28646 2.77539 5.33203 2.77539C5.40365 2.77539 5.61849 2.71354 5.97656 2.58984C6.34115 2.45964 6.73828 2.3099 7.16797 2.14062C7.60417 1.97135 7.98503 1.80859 8.31055 1.65234C8.89648 1.39844 9.5638 1.19336 10.3125 1.03711C11.0026 0.89388 11.6243 0.822266 12.1777 0.822266H12.3145ZM11.4941 2.16992H11.5234C11.582 2.16992 11.6536 2.21224 11.7383 2.29688C11.8294 2.36849 11.8945 2.4987 11.9336 2.6875C11.9792 2.86979 12.0085 3.17578 12.0215 3.60547C12.028 3.71615 12.0312 3.83008 12.0312 3.94727C12.0312 5.50326 11.5299 7.22201 10.5273 9.10352C10.3516 9.42253 10.2018 9.72526 10.0781 10.0117C9.96094 10.2917 9.89258 10.4837 9.87305 10.5879C9.87305 10.6855 9.85352 10.7995 9.81445 10.9297C9.7819 11.0599 9.73958 11.1738 9.6875 11.2715C9.61589 11.4603 9.58008 11.6556 9.58008 11.8574C9.58008 11.9811 9.60286 12.1569 9.64844 12.3848C9.70052 12.6061 9.83724 12.8145 10.0586 13.0098C10.2018 13.1335 10.3678 13.2083 10.5566 13.2344H10.6152C10.791 13.2344 10.9896 13.1497 11.2109 12.9805C11.3151 12.8958 11.4714 12.7396 11.6797 12.5117C11.888 12.2839 12.0638 12.0267 12.207 11.7402C12.2526 11.6426 12.3275 11.5807 12.4316 11.5547C12.4577 11.5482 12.4837 11.5449 12.5098 11.5449C12.5814 11.5449 12.6432 11.5742 12.6953 11.6328C12.7409 11.6784 12.7637 11.7467 12.7637 11.8379C12.7637 11.903 12.7539 11.9746 12.7344 12.0527C12.6042 12.3066 12.4284 12.5736 12.207 12.8535C11.8424 13.3288 11.5234 13.6543 11.25 13.8301C11.0221 13.9733 10.7715 14.0449 10.498 14.0449C10.4395 14.0449 10.3776 14.0417 10.3125 14.0352C10.1628 14.0221 10.013 13.9863 9.86328 13.9277C9.71354 13.8757 9.60286 13.8203 9.53125 13.7617C9.35547 13.5859 9.19271 13.332 9.04297 13C8.89323 12.668 8.81836 12.3913 8.81836 12.1699L8.80859 12.1309C8.78906 12.0267 8.76953 11.8346 8.75 11.5547C8.74349 11.4635 8.74023 11.3691 8.74023 11.2715C8.74023 11.0762 8.75651 10.8711 8.78906 10.6562C8.82812 9.71224 8.95833 8.64128 9.17969 7.44336C9.40104 6.23893 9.64193 5.33073 9.90234 4.71875C9.98698 4.54297 10.0553 4.37044 10.1074 4.20117C10.1595 4.0319 10.1855 3.91471 10.1855 3.84961C10.1855 3.71289 10.2441 3.53385 10.3613 3.3125C10.485 3.09115 10.625 2.88281 10.7812 2.6875C10.9375 2.48568 11.0807 2.3457 11.2109 2.26758C11.3346 2.20247 11.429 2.16992 11.4941 2.16992ZM10.9277 4.63086C10.8301 4.63737 10.6868 4.88802 10.498 5.38281C10.3158 5.8776 10.1497 6.48633 10 7.20898C9.98698 7.26107 9.97721 7.31315 9.9707 7.36523C9.92513 7.58659 9.88932 7.75911 9.86328 7.88281C9.84375 8.00651 9.83073 8.09115 9.82422 8.13672V8.18555C9.82422 8.20508 9.82747 8.2181 9.83398 8.22461C9.84701 8.22461 9.86654 8.2181 9.89258 8.20508C9.89909 8.20508 9.90234 8.20182 9.90234 8.19531C10.0065 8.11068 10.1465 7.83724 10.3223 7.375C10.5046 6.91276 10.6673 6.43099 10.8105 5.92969C10.9538 5.42188 11.0254 5.06055 11.0254 4.8457C10.9928 4.70247 10.9603 4.63086 10.9277 4.63086ZM15.1855 8.08789C15.3483 8.46549 15.4362 8.86914 15.4492 9.29883C15.4492 9.31185 15.4525 9.32487 15.459 9.33789V9.39648C15.446 9.49414 15.4362 9.6276 15.4297 9.79688C15.4102 9.97266 15.3841 10.1745 15.3516 10.4023C15.3255 10.6237 15.2897 10.8255 15.2441 11.0078L15.2051 11.1445C15.1465 11.4375 15.0684 11.7109 14.9707 11.9648C14.8665 12.2253 14.6973 12.4857 14.4629 12.7461C14.2285 13.1042 14.0007 13.319 13.7793 13.3906C13.6686 13.4297 13.5645 13.4492 13.4668 13.4492C13.3691 13.4492 13.278 13.4297 13.1934 13.3906C12.7702 13.1953 12.487 12.7917 12.3438 12.1797C12.2852 11.9193 12.2559 11.6393 12.2559 11.3398C12.2559 10.9362 12.3079 10.4935 12.4121 10.0117C12.5814 9.32812 12.7799 8.86263 13.0078 8.61523C13.112 8.50456 13.1934 8.4069 13.252 8.32227C13.2975 8.26367 13.3203 8.22786 13.3203 8.21484C13.3203 8.20833 13.3171 8.20508 13.3105 8.20508C13.304 8.20508 13.3008 8.20182 13.3008 8.19531C13.3008 8.18229 13.3105 8.15299 13.3301 8.10742C13.3561 8.04232 13.3919 7.96094 13.4375 7.86328C13.6003 7.58333 13.7663 7.43034 13.9355 7.4043C14.0592 7.4043 14.1634 7.44336 14.248 7.52148C14.3132 7.57357 14.3913 7.61914 14.4824 7.6582C14.5801 7.69727 14.6777 7.72656 14.7754 7.74609C14.8535 7.75911 14.9316 7.79492 15.0098 7.85352C15.0684 7.89258 15.1139 7.94141 15.1465 8C15.1595 8.01953 15.1693 8.03906 15.1758 8.05859C15.1758 8.07161 15.179 8.08138 15.1855 8.08789ZM14.6289 10.3145C14.6615 10.1387 14.6777 9.92057 14.6777 9.66016C14.6777 9.00911 14.5508 8.66732 14.2969 8.63477H14.2871C14.0658 8.63477 13.8021 8.94401 13.4961 9.5625C13.2096 10.1875 13.0664 10.7441 13.0664 11.2324C13.0664 11.5514 13.125 11.8444 13.2422 12.1113C13.3464 12.3587 13.4538 12.4824 13.5645 12.4824C13.6882 12.4824 13.8184 12.3294 13.9551 12.0234C14.1699 11.5677 14.3294 11.2129 14.4336 10.959C14.5378 10.7051 14.6029 10.4902 14.6289 10.3145ZM21.25 7.9707C21.4779 8.15951 21.5918 8.41667 21.5918 8.74219C21.5918 8.89844 21.5397 9.16536 21.4355 9.54297C21.3314 9.92057 21.1198 10.4544 20.8008 11.1445C20.6185 11.5352 20.4557 11.916 20.3125 12.2871C20.1497 12.6712 19.9414 12.9805 19.6875 13.2148C19.4401 13.4492 19.2155 13.5664 19.0137 13.5664C18.7923 13.5664 18.623 13.4655 18.5059 13.2637C18.3887 13.0684 18.3073 12.7852 18.2617 12.4141C18.2292 12.2188 18.2031 11.9811 18.1836 11.7012C18.1706 11.5319 18.1641 11.3757 18.1641 11.2324C18.1641 11.1348 18.1673 11.0436 18.1738 10.959C18.1608 10.959 18.1413 10.985 18.1152 11.0371C18.0957 11.0892 18.0632 11.1673 18.0176 11.2715C17.9329 11.4993 17.8288 11.7467 17.7051 12.0137C17.4837 12.4238 17.2754 12.681 17.0801 12.7852C16.9824 12.8372 16.8913 12.8633 16.8066 12.8633C16.7155 12.8633 16.6309 12.8372 16.5527 12.7852C16.403 12.707 16.2858 12.5833 16.2012 12.4141C16.123 12.2448 16.0547 12.0592 15.9961 11.8574C15.8919 11.4928 15.8268 11.1576 15.8008 10.8516C15.7943 10.7604 15.791 10.666 15.791 10.5684C15.791 10.347 15.8073 10.1126 15.8398 9.86523C15.9375 9.25326 16.1165 8.80729 16.377 8.52734C16.5007 8.39062 16.6178 8.32227 16.7285 8.32227C16.8457 8.32227 16.9531 8.40365 17.0508 8.56641C17.1029 8.67057 17.1322 8.83333 17.1387 9.05469V9.19141C17.1387 9.36719 17.1257 9.54948 17.0996 9.73828C17.0801 9.92708 17.0443 10.054 16.9922 10.1191L16.9824 10.1289C16.9499 10.181 16.901 10.2917 16.8359 10.4609C16.7708 10.6302 16.7383 10.8451 16.7383 11.1055C16.7383 11.2617 16.7806 11.3529 16.8652 11.3789C16.8848 11.3854 16.9076 11.3887 16.9336 11.3887C16.9922 11.3887 17.054 11.3594 17.1191 11.3008C17.2233 11.1706 17.3503 10.9427 17.5 10.6172C17.6497 10.2852 17.7832 9.94336 17.9004 9.5918C18.0176 9.24023 18.0762 8.97982 18.0762 8.81055C18.0762 8.60872 18.0924 8.46875 18.125 8.39062C18.1641 8.3125 18.252 8.2474 18.3887 8.19531C18.5254 8.1237 18.6393 8.08789 18.7305 8.08789C18.9648 8.08789 19.082 8.29948 19.082 8.72266C19.082 8.80078 19.0788 8.88216 19.0723 8.9668C18.9941 9.74805 18.9486 10.36 18.9355 10.8027V11.0566C18.9355 11.3822 18.9453 11.6393 18.9648 11.8281C18.9909 12.0169 19.0169 12.1504 19.043 12.2285C19.056 12.2741 19.0755 12.3197 19.1016 12.3652C19.1276 12.4043 19.1504 12.4303 19.1699 12.4434H19.1797C19.3099 12.4434 19.4661 12.2415 19.6484 11.8379C19.8307 11.4277 20.0033 10.959 20.166 10.4316C20.3288 9.9043 20.4492 9.4681 20.5273 9.12305C20.6185 8.77799 20.6966 8.51758 20.7617 8.3418C20.8268 8.16602 20.8952 8.05534 20.9668 8.00977C21.0124 7.97721 21.071 7.96094 21.1426 7.96094C21.1751 7.96094 21.2109 7.96419 21.25 7.9707Z" fill="white"/>
<path d="M23.1543 11.3691C23.3366 11.3691 23.4798 11.4212 23.584 11.5254C23.6751 11.623 23.7207 11.7402 23.7207 11.877C23.7207 11.9225 23.7077 12.0072 23.6816 12.1309C23.6621 12.2546 23.5579 12.4141 23.3691 12.6094C23.2585 12.7201 23.1543 12.8112 23.0566 12.8828C22.959 12.9479 22.8874 12.9805 22.8418 12.9805C22.5488 12.9805 22.3438 12.8242 22.2266 12.5117C22.1875 12.3945 22.168 12.2806 22.168 12.1699C22.168 11.9811 22.2266 11.8053 22.3438 11.6426C22.4414 11.5514 22.5651 11.4831 22.7148 11.4375C22.8646 11.3919 23.0111 11.3691 23.1543 11.3691Z" fill="#8234E9"/>
</svg>
